/* XPM */
static char *ed56a26e6ac34190fdf526a5deb0832c1Dw14CeNWNk7HYJj[] = {
/* columns rows colors chars-per-pixel */
"64 59 256 2 ",
"   c #000C00",
".  c #021901",
"X  c #151209",
"o  c #0B2803",
"O  c #162A01",
"+  c #133410",
"@  c #303207",
"#  c #293A32",
"$  c #192B1A",
"%  c #583716",
"&  c #693C27",
"*  c #1B5801",
"=  c #094C00",
"-  c #2B5310",
";  c #286608",
":  c #356D17",
">  c #346F0F",
",  c #344F27",
"<  c #396B2A",
"1  c #1A6300",
"2  c #44440D",
"3  c #4E4D18",
"4  c #467717",
"5  c #436C14",
"6  c #4F592D",
"7  c #785C2A",
"8  c #7A5D37",
"9  c #6E4B2C",
"0  c #476B38",
"q  c #497836",
"w  c #547738",
"e  c #4B712C",
"r  c #7B643A",
"t  c #7B7639",
"y  c #706C30",
"u  c #002B56",
"i  c #043271",
"p  c #1C2B69",
"a  c #384E44",
"s  c #255B68",
"d  c #346A6B",
"f  c #235855",
"g  c #775749",
"h  c #587B49",
"j  c #50714D",
"k  c #6F744E",
"l  c #68786A",
"z  c #4C695F",
"x  c #895A36",
"c  c #8A562F",
"v  c #866539",
"b  c #836932",
"n  c #845C46",
"m  c #976846",
"M  c #867647",
"N  c #996B58",
"B  c #90704E",
"V  c #957367",
"C  c #A87A6C",
"Z  c #A37651",
"A  c #358529",
"S  c #548E1D",
"D  c #488529",
"F  c #548829",
"G  c #58972C",
"H  c #4C8835",
"J  c #568A37",
"K  c #599738",
"L  c #4A9633",
"P  c #63893B",
"I  c #679B39",
"U  c #739036",
"Y  c #58A637",
"T  c #47B234",
"R  c #52AA32",
"E  c #6DAD3D",
"W  c #67A63A",
"Q  c #72A83C",
"!  c #69B334",
"~  c #6BB13C",
"^  c #67B337",
"/  c #72B439",
"(  c #66B52E",
")  c #64961D",
"_  c #598947",
"`  c #5C9745",
"'  c #5C8456",
"]  c #4E9051",
"[  c #778A47",
"{  c #669949",
"}  c #759547",
"|  c #698757",
" . c #748C59",
".. c #699757",
"X. c #769B58",
"o. c #688A4B",
"O. c #5AA847",
"+. c #5AB643",
"@. c #4AA049",
"#. c #6CAE44",
"$. c #6CAC4C",
"%. c #65A748",
"&. c #73AC4C",
"*. c #77A847",
"=. c #65B243",
"-. c #69B142",
";. c #6BB34C",
":. c #67B74A",
">. c #72B444",
",. c #73B44A",
"<. c #79B649",
"1. c #6DAC53",
"2. c #6AA856",
"3. c #77AA57",
"4. c #6CB253",
"5. c #68B756",
"6. c #73B354",
"7. c #7AB657",
"8. c #538E6C",
"9. c #6C8A67",
"0. c #768968",
"q. c #789B67",
"w. c #799374",
"e. c #728E74",
"r. c #6AA869",
"t. c #78A866",
"y. c #7AB366",
"u. c #72AB6F",
"i. c #79C35A",
"p. c #6BC74F",
"a. c #77C963",
"s. c #5FCF48",
"d. c #83833B",
"f. c #85884B",
"g. c #849946",
"h. c #868A54",
"j. c #869B59",
"k. c #939356",
"l. c #82A94E",
"z. c #85A959",
"x. c #84B759",
"c. c #84BB44",
"v. c #8B9874",
"b. c #A88978",
"n. c #88AA66",
"m. c #86B869",
"M. c #8AB977",
"N. c #96B878",
"B. c #90AB6D",
"V. c #A8A76F",
"C. c #87C557",
"Z. c #84C568",
"A. c #8BC374",
"S. c #94CF70",
"D. c #22368C",
"F. c #284D94",
"G. c #37698A",
"H. c #3250AF",
"J. c #3D64B3",
"K. c #44748E",
"L. c #4A58B7",
"P. c #4467BB",
"I. c #5277AF",
"U. c #6671B2",
"Y. c #4C5592",
"T. c #3954C5",
"R. c #3151D2",
"E. c #3762C7",
"W. c #2D44EB",
"Q. c #3C4CFB",
"!. c #3752FF",
"~. c #3152EE",
"^. c #3964FB",
"/. c #3C67EA",
"(. c #465BC8",
"). c #4A5CD0",
"_. c #526AD5",
"`. c #425DFF",
"'. c #4D5EF7",
"]. c #4555EF",
"[. c #4661F4",
"{. c #4F64E8",
"}. c #666FDA",
"|. c #2C3FF5",
" X c #5A8F8A",
".X c #6BA988",
"XX c #67A09C",
"oX c #6B8CCD",
"OX c #6786E1",
"+X c #919A8C",
"@X c #97B587",
"#X c #99BA97",
"$X c #92AD8F",
"%X c #A5B897",
"&X c #ADB18F",
"*X c #B1B6AD",
"=X c #9499A2",
"-X c #C6A99E",
";X c #9AC887",
":X c #A9C799",
">X c #ACD88F",
",X c #B3CDAF",
"<X c #B0E3A2",
"1X c #C5D8B6",
"2X c #C6D0AB",
"3X c #CDEDBA",
"4X c #E2C5BD",
"5X c #9097D0",
"6X c #8FACDC",
"7X c #8C9CF4",
"8X c #8BA1F2",
"9X c #97A7FD",
"0X c #94ABEC",
"qX c #AEB5FC",
"wX c #B9D1C3",
"eX c #AAC4F9",
"rX c #CCD9C7",
"tX c #CDD4CF",
"yX c #EDD1CA",
"uX c #C8E9C7",
"iX c #D3E4C9",
"pX c #D8F8C8",
"aX c #DAE7D8",
"sX c #DCF8D5",
"dX c #CCFAD0",
"fX c #E3FFCB",
"gX c #E5F9D8",
"hX c #F4FEDB",
"jX c #F2E8DA",
"kX c #CBD7FE",
"lX c #D8EAE3",
"zX c #DDFAFF",
"xX c #D9EDF3",
"cX c #EBECED",
"vX c #E5EBE5",
"bX c #EDFEE4",
"nX c #EDFDEB",
"mX c #E6F7E8",
"MX c #F2FFE3",
"NX c #F3FFEB",
"BX c #FCFEEC",
"VX c #F9F7E9",
"CX c #E5EEFE",
"ZX c #EAECF4",
"AX c #EDFEF4",
"SX c #E4FEFF",
"DX c #ECFEFE",
"FX c #E6F4FC",
"GX c #F3F4F4",
"HX c #F4FEF2",
"JX c #FCFEF4",
"KX c #FDF5FF",
"LX c #F4FEFE",
"PX c #FDFEFE",
"IX c #F7F6FA",
"UX c #F7EEF0",
/* pixels */
"PXPXPXPXPXPXPXPXPXPXPXPXPXPXPXPXJXPXJXcXcXGXPXPXPXKXKXKXPXPXKXIXKXPXPXPXPXPXKXGXZXKXPXPXPXPXPXPXPXPXPXPXPXPXPXPXPXPXPXPXPXPXPXPX",
"PXPXPXPXPXPXPXPXPXPXPXPXPXPXPXPXGXIXPXPXPXPXZXcXZXZXLXPXPXPXIXZXIXZXcXcXcXGXPXPXPXPXLXGXZXcXcXcXPXPXPXPXPXPXPXPXPXPXPXPXPXPXPXPX",
"PXPXPXPXPXPXPXPXPXPXPXPXPXPXPXPXcXLXPXPXPXPXGXcXPXPXPXLXGXPXPXPXPXPXPXLXPXPXPXPXPXPXPXLXIXLXPXPXPXPXPXPXPXPXPXPXPXPXPXPXPXPXPXPX",
"PXPXPXPXPXPXPXPXPXPXPXPXPXPXPXPXPXPXLXGXLXPXPXPXAXHXVXvXaXvXNXJXPXPXHXPXPXPXZXaXPXJXPXPXPXJXPXJXPXPXPXPXPXPXPXPXPXPXPXPXPXPXPXPX",
"PXPXPXPXPXPXPXPXPXPXPXPXPXPXPXPXLXLXLXLXLXPXLXIXaXJXBXBXNXNXhXhXmXnXHXHXHXNXmXvXlXmXNXJXJXHXmXvXPXPXPXPXPXPXPXPXPXPXPXPXPXPXPXPX",
"PXPXPXPXPXPXPXPXPXPXPXPXPXPXPXPXcXDXLXLXLXmXiX1XNXNXBXhX3XpXhXhXBXHXNXnXnXHXHXNXHXHXHXHXHXHXbXmXPXPXPXPXPXPXPXPXPXPXPXPXPXPXPXPX",
"PXPXPXPXPXPXPXPXPXPXPXPXPXPXPXPXDXDXLXDXaX,X$Xe.%X@X .w 3 w B.2XMXNXNXNXAXnXgXgXnXbXsXsXsXbXMXHXJXPXPXPXPXPXPXPXPXPXPXPXPXPXPXPX",
"PXPXPXPXPXPXPXPXPXPXPXPXPXPXPXPXLXDXmXwX#Xw.| h h X.N.N.x.} U z.:X1XgXbXsX%X| , @Xv.0.9.w.:XsXNXJXPXPXPXPXPXPXPXPXPXPXPXPXPXPXPX",
"PXPXPXPXPXPXPXPXGXPXPXPXPXPXPXPXDXmX,X.Xe.9.q.@X .X.z.x.z.*.I I J h :X<X' h @Xn.w.q.q.q.q.q.q.q.JXPXPXcXGXPXPXcXPXPXPXPXPXPXPXPX",
"PXPXPXPXPXPXPXPXIXPXPXPXPXPXPXPXmXuX;Xu.9.q.q.3.m.x.3.*.Q Q l.l.t.h 0 q w ..t...u.t.t.q.q.....9.NXPXPXPXPXPXPXPXPXPXPXPXPXPXPXPX",
"PXPXPXPXPXPXPXPXPXPXPXPXPXPXPXJXuX;X....t.m.2.J S.x.} F F I c.C.M.t.q e t.M.t.m.r.2.....] _ _ h rXPXPXPXIXPXPXPXPXPXPXPXPXPXPXPX",
"PXPXPXPXPXPXPXPXPXPXPXPXPXPXPXnX@X7...{ 1.3.{ J D > * = = * ; > H y.2.` A.t.` m.M.A.A.m.m.M.m.M.+XtXPXPXIXIXGXUXPXPXPXPXPXPXPXPX",
"PXPXPXPXPXPXPXPXPXPXPXPXPXPXcXiXJ #.3.6.` G I E C.<.<.#.E #.<.x.; K e : ` D ; _ H H H H _ K ` _ l *XPXPXPXPXIXcXPXPXPXPXPXPXPXPX",
"PXPXPXPXPXPXPXPXPXPXIXPXPXPXtX*Xq E C.<.G S G i.I W G W W G G G 7.{ ; * A ` H L * * ; ; ; : : < l *XvXPXPXKXPXPXPXPXPXPXPXPXPXPX",
"PXPXPXPXPXPXPXPXPXIXPXPXPXUX*Xv.W / p.<.! Y W >.<.<.,.-.-.-.#.$.>X1.L D D K 4.` 7.7.6.1.1.1.1.X.v.=X*X=XtXUXPXPXPXPXPXPXPXPXPXPX",
"PXPXPXPXPXPXPXPXPXHXHXPXPXmX%X9.x.<./ / >.<.-.E ,.-.W K G K W #.G L Z.Z.; * K L 7.1.%.%.K L H J l l z g l 1XJXPXPXPXPXPXPXPXPXPX",
"PXKXKXPXPXPXPXKXLXAXlXnXbX3Xt._ 1.1.4.4.6.6.7.6.K S.F G G ; 4 4 1.F { H = * H J *.S.4 %.Z.; > e - j , @ v.+X$XJXJXPXJXPXGXZXKXPX",
"KXPXPXKXKXPXPXLXSXDXAXsX;XJ I m.6.4.2.5.1.4.1.&.> I * 5 U 4 F 5 J 2.S.;X3.J H : * ` H M.S.< J `  . .0 0.@Xh 6 l vXNXPXPXGXGXKXPX",
"PXKXPXPXPXPXLXLXLXmXuX#Xh - H A.3.5.2.1.2.%.{ %.F m.q { z.P { } X.q.' ..q.9.h h j ' ' t.h , u.@XN.h h &X,Xk l ,XrXjXGXPXPXKXPXPX",
"KXPXPXKXPXPXPXLXLXwX9.h _ J ` $.6.5.1.2.` ` ` K q y.3.2.3...n.<X#Xe.- # e.:X#X#X9.j 9.$X' w.,X#X2Xh 0 :XgX2X0.6 ,XtXUXPXPXPXKXPX",
"KXPXPXPXPXPXLXLXAX$X0 j t.A.3.Y 6.4.5.O.O.` K _ t.t._ < ....< j :Xl $ f wXzXDXaXz a $XxXlXmXwXz k - + - 6 :XNXNX*XrXcXPXPXPXKXPX",
"PXPXPXPXPXLXLXLX$Xe.8.t.y.3.3.y.6.4.1.%.{ ` K ] 2.< , < 1XMX.Xl #Xa $ # e.kXDXDXwX=XlXAXLXDXl   bX| O   O 1XJX:X,XrXVXPXPXPXKXKX",
"PXPXPXPXPXLXHXnXh 9.u.@Xt.` %.S.,.;.;.%.%.` ` ] gXdXdXuXAXuX.   z X # a X l mXtXLXLXLXaXlXtX#   . , gX3X  . iXBXrXaXGXPXKXKXKXPX",
"PXPXPXPXJXHXHXMX' ' ..m.7.` %.Z.,.;.:.%.%.%.{ ..] u.sXmXAXuX$ o .   $XtX, 6 ,Xw.$XiXNXbXBXgXX   1X. . O   # &X0.aXvXJXPXGXZXKXPX",
"PXvXKXHXiXNXuX0 n.t.t.3.3.5.6.4.=.-.-.;.$.1.2.3.;X] - j ,XwXj   j , O . . + e  . .| o. .o.w - O O   o , 6 k e.k BXJXJXPXPXPXPXPX",
"PXvXPXmXmXMX:Xh t.t.3.3.1.1.1.4.:.~ #.=.$.$.1.2..._ ' ' 9.h j < 5 e P U } P w 5 } } } X.X.[ w 5 o.o.q. .l %XgXiXJXJXPXPXPXPXKXPX",
"PXZXPXmXNXhXq...3.3.3.4.1.5.4.;.=.E =.=.$.$.&.2.K ..u...0 < h q.w 4 4 5 5 5 5 5 l.Q Q *.l.x.l.*.n.v.@Xq.h :XVXNXJXJXPXPXPXPXPXPX",
"LXAXHXgXNXfXw z.3.6.&.4.;.;.4.;.=.=.E #.#.#.$.&.m.7.{ { ..X.3.3.S.c.) 5 > S c.S.<.*.Q Q Q c.x.C.o.h | v.w.%XsXbXJXJXJXPXPXPXPXKX",
"LXmXHXnXbX3Xw x.3.<.,.;.;.;.;.5.=.#.=.~ =.#.#.#.Z.*.I *.x.S.z.I G G Y W ! Q >.>.,.#.Y G G G W &.B., _ 3XhXgXgXBXJXJXPXPXPXKXPXPX",
"PXlXHXNXhX3XI x.&.*.>.;.;.5.;.:.=.E E =.E #.~ E G W Q c.Q U ) ) > A D Y W Y L S =.O.W L D D L O.;X6 | pXMXBXBXNXHXJXJXPXPXPXPXKX",
"LXaXDXMXgX3XC.l.<.&.-.>.:.;.5.5.=.E ~ E E E E E S / c.c.) ) ) Q i.i.r.5.5.a.Z.S.:.5.5.O.L L ` %.B.o. .@X:XgXBXgXJXJXPXPXPXPXPXKX",
"PXtXLXHXpXfX>XQ / / >.~ -.;.;.;.=.=.+.E E ~ E E C.c./ / / / ! / =.:.5.5.5.+.O.+.5.5.a.5.+.T +.5.u.M.M.0 0 3XMXgXNXHXPXPXPXPXKXPX",
"KXKXPXxXVXfX&.>.! ( ! ! ~ $.$.$.=.+.+.~ ~ -.<.<.~ ,.<.p.+.R +.p.i.i.6.6.i.i.:.+.Y R T T T T T T R a.O.r._ < <XbXnXAXLXPXPXKXKXKX",
"KXKXPXmXMXfX%.>.! ( ( ! E #.&.$.5.:.=.-.-.>.<.<.#.,.<.,.:.+.+.p.%.W K K =.Y R L p.p.p.s.s.s.s.s.a.a.A 5.a.M.dXbXnXNXPXPXPXKXKXKX",
"KXKXPXcXMXfX$./ ! ( ( ! ~ #.&.$.x.7.6.*.*.g.l.g.U l.l.g.Q W #.*.x.l.*.&.c.x.7.;.Y Y Y R R R R R Y a.O.Z.y...3XhXnXNXPXPXPXKXPXKX",
"KXKXPXmXnXfX&.>.! ( ( ( ~ E *.*.x.x.g.g.f.U d.b b d.f.U U t U U B.j.g.j.B.B.m.x.x.x.x.x.7.7.i.7.D x.2.m.w - @X3XNXJXJXPXPXKXPXKX",
"KXKXKXvXMXfX$.,.! ^ ^ ( ! E Q *.z.g.f.[ t y b 7 b c b b c 7 y y f.t y y t } f.[ f.} } [ } } [ k B.g.2 P [ w v.l BXBXJXKXKXPXKXKX",
"KXKXPXgXbXfX2.,.~ ^ ^ ! ~ Q / *.j.k.f.v r 7 c c c c c c c c 7 c M b y 7 b b M t 2 2 2 2 2 2 @ % k.k.6 k k 6 V.&XBXJXPXPXPXPXPXPX",
"PXUXJXgXhXfX2.6.;.+.~ ^ ~ E Q *.j.j.h.[ v v c c c c m m x c x v Z m b c v v M n r r n r g r g n 9 M 8 B r 6 4XBXBXJXPXPXKXPXPXPX",
"JXVXBXgXMXgXr.r.1.%.;.%.-.~ E *.B.n.j. .M M m m m m Z m x v m B x 7 % % & 9 & 9 v n n n n n n n 3 % X % N b.jXBXJXJXPXPXPXPXPXPX",
"JXBXJXaXMXbXu.r.r.5.O.O.O.K W I 2.M.M.X.6 O X X @ @ % 9 v M M Z M m m Z m Z B Z N N N C b.C C g N N n & C jXVXVXJXJXJXPXPXPXPXLX",
"BXVXBXgXHXAXw.8.8.@.8.5.6.7.m.i.H ] ] ] _  .h.f.M f.B M y y 3 3 7 r b y 8 b x g % g C N & & V -Xg n g 9 C jXJXUXUXJXPXJXPXPXLXPX",
"BXhXJXbXDXzX8.z .X.X.X.Xu.2.%.{ 5.@.A A 2.A.N.B.j.j.n.j.X.o.o.w V.V.k.b 9 2 % @ 9 g 8 g n n V V N V V V -XVXJXVXJXPXJXPXPXLXPXLX",
"VXhXJXGXDXzX Xd  X.X.Xa.u.2.` H A.5.@.@.%.1.} P o.} X.z.n.m.m.m.g.g.d.g.g.f.M h.k.B k V +Xb.V g 4XyXyX4XjXUXJXjXPXJXPXPXPXPXPXLX",
"VXjXPXLXLXzXK.s i s d 8.8.u.u.5.@.O.O.;.1.&.*.3.x.l.7.7.3.%.%.O.! Q Q l.z.B.B.N.| v.&X+Xk k v.2XUXJXJXUXJXJXJXUXJXPXJXPXLXLXPXLX",
"BXVXPXDXDXzXK.G.s s d d 8.8...r.O.:.7.x.x.&.l.z.l.l.&.*.%.O.Y Y C.C.i.,.W I H w j.t. .h  .+XrXJXJXKXJXPXPXJXPXUXPXJXPXPXPXJXLXPX",
"JXJXPXFXDXSXI.Y.I.K.d d d < q < Z.=.I I Q *.Q U U I I I W =.+.:.R R R Y ! =.4.y.A..._ q.:XsXMXMXVXGXJXPXPXJXHXPXJXPXPXHXPXJXJXLX",
"BXUXPXCXLXAX_.P.J.J.J.F.G.G. Xe.u.< = * J z.z.I l.3.#.Q Y R R T p.5.O.5.r.r.r.r.8.#XdXAXbXsXmXAXLXJXPXPXPXnXGXHXPXPXPXJXLXLXPXJX",
"hXjXPXFXDXCX(.T.R.W.~.R.~.~.R.H.K.] 8.8.8.r.r.r.: > 1 1 1 = = = = + u s d G.Y.Y.oXeXSXFXSXSXDXLXPXPXPXPXPXPXPXPXPXPXPXPXPXPXPXPX",
"BXMXPXCXIXCX_.].].Q.!.!.~.~.^.~.H.G.F.G.G.K.K.8.XX8.r.8.8.@.@.] XXXXoXoX_.E.T.D.H._.9XkXzXSXzXFXLXPXPXPXPXPXPXPXPXPXPXPXPXPXPXPX",
"BXNXPXCXIXCX}.{.].`.`.^.^.^.^.^.W.R.R.R.E.E.E.E.D.i D.i u u u u u u i F.H.T.(.).H.H.L.oXqXxXCXCXPXPXPXPXPXPXPXPXPXPXPXPXPXPXPXPX",
"BXJXLXCXKXCX(.).{.].'.[.^./././.`.`.`.`.^.^.^.^././././.{.E._.(.F.F.G.J.(.).).].{.).H.H.U.0XxXIXPXPXPXPXPXPXPXPXPXPXPXPXPXPXPXPX",
"BXNXLXLXLXkXL.H.(.T.T.R.E.E.H.E.`.Q.Q.Q.Q.Q.Q.Q.|.W.W.W.W.W.W.R.}.OX}._.).).).R.{.}.L.D.D.Y.5XkXPXPXPXPXPXPXPXPXPXPXPXPXPXPXPXPX",
"MXJXKXLXLXCXU.U.L.P.J.J.H.J.J.E.R.Q.].Q.Q.Q.Q.~.[.^.'.[.'.'.[.{.F.F.F.J.(.).).}.L.).}.).Y.p Y.U.PXPXPXPXPXPXPXPXPXPXPXPXPXPXPXPX",
"JXJXPXCXLXLX6XqX0X0X0X0X0XoX6X6X8X8X8X8X7X8X8X8X8X8X8X8X0X8X8X8XqX0X9X9X9X9X9X7X7X9XqXqX5X5X5X=XPXPXPXPXPXPXPXPXPXPXPXPXPXPXPXPX",
"PXPXPXlXKXLXkXIXIXCXzXzXzXzXzXxXSXSXSXDXDXAXDXDXDXDXDXDXDXDXDXSXSXSXSXSXCXCXZXCXUXUXUXUXIXLXZXZXPXPXPXPXPXPXPXPXPXPXPXPXPXPXPXPX",
"JXPXPXLXLXLXPXLXLXLXLXDXLXDXDXDXnXMXbXhXbXbXMXNXMXAXHXAXAXAXLXDXDXDXDXDXLXDXLXLXLXLXLXKXPXPXPXPXPXPXPXPXPXPXPXPXPXPXPXPXPXPXPXPX",
"PXLXPXPXPXPXLXLXLXLXLXLXLXLXLXHXhXhXhXhXhXhXhXMXMXNXMXNXHXHXNXHXDXDXDXDXLXLXLXLXPXPXPXPXPXJXBXBXPXPXPXPXPXPXPXPXPXPXPXPXPXPXPXPX",
"JXPXPXLXPXPXPXLXPXPXLXPXPXLXPXPXJXHXHXJXJXLXJXLXPXLXPXLXPXLXPXLXLXHXLXLXLXLXLXPXPXJXJXBXBXBXBXBXJXPXPXPXPXPXPXPXPXPXPXPXPXPXPXPX"
};
